<?xml version="1.0" encoding="utf-8"?>
<!-- Generator: Adobe Illustrator 22.1.0, SVG Export Plug-In . SVG Version: 6.00 Build 0)  -->
<svg version="1.1" id="Ebene_1" xmlns="http://www.w3.org/2000/svg" xmlns:xlink="http://www.w3.org/1999/xlink" x="0px" y="0px"
	 viewBox="0 0 220.1 65.6" style="enable-background:new 0 0 220.1 65.6;" xml:space="preserve">
<style type="text/css">
	.st0{fill:#003D7C;}
	.st1{fill:none;}
	.st2{fill:#B2B2B2;}
</style>
<title>logo_inotec-electronics</title>
<path class="st0" d="M64.8,32.9"/>
<path class="st1" d="M78.9,35.3"/>
<path class="st0" d="M80.8,10.2c-16,0.1-16,13.7-16,13.7v15.8h13.6c0,0,0.4,0,0.4-0.4c0-0.4,0-14.5,0-14.5s0-1.8,1.9-1.8
	c1.9,0,1.9,1.8,1.9,1.8s0,14,0,14.5c0,0.4,0.4,0.4,0.4,0.4l13.4,0c0,0,0.4,0,0.4-0.4c0-0.4,0-15.4,0-15.4S96.9,10.2,80.8,10.2z
	 M62.3,1c0,0-11.6,0-13.8,0C48,1,48,1.5,48,1.5l0,37.5c0,0,0,0.6,0.7,0.6c0.7,0,13.6,0,13.6,0s0.5,0,0.5-0.5V1.5
	C62.8,1,62.3,1,62.3,1z M38.3,64.8V1H22L38.3,64.8z M0,64.8H17L0,1V64.8z M166.4,9.8c-16.8,0.5-16.3,15-16.3,15s-0.5,14.3,16.3,14.9
	c12.1,0.3,15.4-8.9,15.4-8.9s0.4-0.9-0.4-1c-0.8-0.2-11.8-3.4-12.1-3.3c-0.3,0-0.6,2.1-2.9,2.1c-2.8,0-2.5-2.6-2.5-2.6
	s-0.1-0.3,0.6-0.3c0.6,0,16.8,0,17.7,0c0.7,0,0.7-0.7,0.7-0.7S183.4,10.5,166.4,9.8z M168.8,20.9c-0.3,0.1-2.5,0-2.5,0s-2.1,0-2.3,0
	c-0.3-0.1,0.1-2.3,2.3-2.3C168.6,18.6,169.1,20.8,168.8,20.9z M213.8,30.3c-0.6-0.3-11.1-4.8-11.4-4.9c-0.3-0.1-0.4-0.2-0.6,0.2
	c-0.3,0.3-0.7,1.4-2.2,1.4c-1.5,0-2.3-1.2-2.4-2.3c0-1.1,0.9-2.4,2.4-2.3c1.4,0,1.8,1,2.1,1.2c0.3,0.2,0.6,0.2,0.9,0.1
	c0.2-0.1,11-4.6,11.5-4.8c0.5-0.3,0.2-0.9,0.2-0.9s-1.9-7.9-14.7-8.6c-16.7,0.5-16.2,14.9-16.2,14.9s-0.5,14.9,16.2,15.6
	c11.2,0,14.6-8.2,14.6-8.2S214.5,30.7,213.8,30.3z M114.7,9.6C98,9.6,98,24.8,98,24.8s-0.1,15,16.7,14.9c16.8,0,16-14.9,16-14.9
	S130.6,9.6,114.7,9.6z M114.7,27.3c-2.5,0-2.5-2.5-2.5-2.5s0-2.3,2.5-2.3c2.4,0,2.4,2.3,2.4,2.3S117,27.2,114.7,27.3z M149.7,28.6
	c-0.5-0.1-0.9,0-2,0c-1.2,0-1.8-1.9-1.8-2c0-0.2,0-5,0-6.6c0-0.6,0.2-0.5,1.4-0.6c1.2-0.1,1.6,0.1,1.6-1c0-2.1,0-7.6,0-7.6
	s0-0.9-0.8-0.9c-0.6,0-1.8,0-1.8,0s-0.4-0.1-0.4-0.4c0-0.9,0-2.8,0-2.8h-13.9c0,0,0.2,20.1,0,21.9c0.6,8.6,6.9,10.9,10.3,11.2
	c3.4,0.3,3.7,0.1,3.7,0.1s2.8-0.1,3-0.4C148.9,39,150.2,28.7,149.7,28.6z"/>
<path class="st2" d="M84.9,48.6c-9.2,0-8.8,8.1-8.8,8.1s-0.4,8.1,8.8,8.1c6.7,0,8.1-4.4,8.2-4.8c0-0.3-0.3-0.4-0.3-0.4s-4.9,0-5.2,0
	c-0.3,0-0.4,0.2-0.5,0.3C87,60,86.5,61,84.9,61c-2.8,0-3-2-3.1-2.3c0-0.3-0.1-0.5,0.5-0.5c0.6,0,10.4,0.1,10.9,0
	c0.3,0,0.3-0.6,0.3-0.6S94.1,48.6,84.9,48.6z M87.5,54.7c-0.2,0.1-2.6,0.2-2.6,0.2s-2.8,0-2.9-0.1c-0.1-0.1,0.3-2.1,2.8-2.1
	C87.3,52.6,87.7,54.6,87.5,54.7z M107.6,59c-0.3,0.2-0.8,0.8-2.6,0.8c-0.2,0-3.1-0.1-3.2-3.1c0-0.3-0.2-3.1,3.2-3.3
	c2,0,2.6,1.1,2.7,1.1c0.1,0,0.5,0.1,0.5-0.2c0-0.3,0-4.5,0-4.5s0-1.1-4-1.2c-0.5,0-8.2-0.4-8.4,8.2c0,8,7.9,8,8.3,8
	c1.7,0,4.1-0.6,4.1-1.2c0-0.3,0-4.4,0-4.4S108.2,58.6,107.6,59z M2.2,1l16.9,63.8h16.9L19.8,1H2.2z M55.5,48.6
	c-9.2,0-8.8,8.1-8.8,8.1s-0.4,8.1,8.8,8.1c6.7,0,8.1-4.4,8.2-4.8c0-0.3-0.3-0.4-0.3-0.4s-4.9,0-5.2,0c-0.3,0-0.4,0.2-0.5,0.3
	c-0.1,0.1-0.6,1.1-2.2,1.1c-2.8,0-3-2-3.1-2.3c0-0.3-0.1-0.5,0.5-0.5c0.6,0,10.4,0.1,10.9,0c0.3,0,0.3-0.6,0.3-0.6
	S64.7,48.6,55.5,48.6z M58.1,54.7c-0.2,0.1-2.6,0.2-2.6,0.2s-2.8,0-2.9-0.1c-0.1-0.1,0.3-2.1,2.8-2.1C57.9,52.6,58.3,54.6,58.1,54.7
	z M72.5,41.4c-0.6,0-4.1,0-4.7,0c-0.7,0-0.7,0-0.6,0.6c0,0.7,0,21.7,0,22.3c0,0.6,0,0.6,0.6,0.6h4.8c0.5,0,0.5,0,0.5-0.6
	c0-0.6,0-21.7,0-22.3C73.2,41.4,73.2,41.4,72.5,41.4z M132.6,49.5c-2.7,0.2-3.5,1.6-3.8,1.7c-0.3,0.1-0.4-0.1-0.4-0.2c0-0.1,0-1,0-1
	s0.1-0.4-0.4-0.4c-1.1,0-4.9,0-4.9,0s-0.3,0-0.3,0.4c0,2.1,0,12.3,0,14.3c0,0.3,0.3,0.3,0.3,0.3s4.1,0,5.2,0c0.4,0,0.4-0.3,0.4-0.3
	l0-6.9c0,0,0.1-1.7,1.1-2.3c1-0.6,1.7-0.6,2.3-0.6c1.7,0,2.1,0.4,2.4,0.5c0.3,0.1,0.3,0,0.4-0.1c0.1-0.1,0.1-4.3,0.1-4.8
	C135,49.5,133.1,49.4,132.6,49.5z M198.6,59c-0.3,0.2-0.8,0.8-2.6,0.8c-0.2,0-3.1-0.1-3.2-3.1c0-0.3-0.2-3.1,3.2-3.3
	c2,0,2.6,1.1,2.7,1.1c0.1,0,0.5,0.1,0.5-0.2c0-0.3,0-4.5,0-4.5s0-1.1-4-1.2c-0.5,0-8.2-0.4-8.4,8.2c0,8,7.9,8,8.3,8
	c1.7,0,4.1-0.6,4.1-1.2c0-0.3,0-4.4,0-4.4S199.2,58.6,198.6,59z M214.4,59.2c-0.1-3.9-5.1-3.9-6.3-4.7c-1.1-1,0.3-1.7,1-1.6
	c1.8-0.1,2.6,0.7,2.9,0.9c0.3,0.1,0.5,0,0.5-0.1c0.1-0.1,0.9-3,1-3.5c0.1-0.5-0.2-0.7-0.2-0.7s-1.6-1.1-5.5-1.1
	c-6.1,0.2-5.8,5.5-5.8,5.5c-0.1,3.9,4.6,4.4,4.6,4.4s2,0.1,2,0.7c0.2,0.5,0,0.7-0.4,1c-0.9,0.5-2.6,0.1-2.6,0.1s-1.6-0.3-2.7-1.1
	c-0.6-0.3-0.7,0.4-0.7,0.4s-0.9,3.3-1,3.6c-0.1,0.3-0.1,0.5,0,0.6c1.6,1.2,4.3,1.3,5.8,1.3C214.8,65,214.4,59.2,214.4,59.2z
	 M180.8,41.9c-3.2,0-3.2,3.2-3.2,3.2s0.3,3,3.2,3c3.1-0.2,3.2-3,3.2-3S184,41.9,180.8,41.9z M145.9,48.6c-9.5,0-9.3,8.1-9.3,8.1
	s-0.4,8,9.3,8.2c10.1-0.2,9.3-8.2,9.3-8.2S155.4,48.7,145.9,48.6z M145.9,60.3c-3.1,0-3.4-3.5-3.4-3.5s0.2-3.4,3.4-3.4
	c3.1,0,3.3,3.4,3.3,3.4S149,60.3,145.9,60.3z M120.3,49.5c-0.6,0-1.5,0-2.1,0c-0.5-0.1-0.5-0.5-0.5-0.5s0-2.6,0-3.3
	c0-0.3-0.3-0.3-0.3-0.3s-5.1,0-5.3,0c-0.2,0-0.2,0.2-0.2,0.2l0,3.2c0,0,0,0.6-0.6,0.6c-0.3,0-0.6,0-0.9,0c-0.6,0-0.6,0.6-0.6,0.6
	s0,2.1,0,2.8c0,0.5,0.5,0.6,0.5,0.6s0.7,0,1,0c0.6,0,0.6,0.6,0.6,0.6l0,10.1c0,0,0,0.5,0.6,0.5h4.6c0.6,0,0.6-0.5,0.6-0.5l0-10.3
	c0,0,0-0.5,0.5-0.5h2.1c0.5,0,0.5-0.5,0.5-0.5l0-3C120.8,50,120.8,49.5,120.3,49.5z M183.4,49.5l-5.2-0.1c0,0-0.4,0-0.4,0.4v14.4
	c0,0.4,0.4,0.4,0.4,0.4h5.2c0,0,0.4,0,0.4-0.4c0-2.2,0-12.3,0-14.4C183.8,49.5,183.4,49.5,183.4,49.5z M169.7,49.1
	c-2,0-2.5,0.1-2.8,0.1c-1.7,0.2-2.6,1.6-2.9,1.7c-0.3,0.1-0.3,0-0.4-0.1c0,0,0-0.3,0-0.6c0-0.7-0.5-0.7-0.5-0.7l-5.1,0
	c0,0-0.3,0-0.3,0.4v14.4c0,0.5,0.3,0.4,0.3,0.4h5.3c0,0,0.3,0,0.3-0.3c0-1.5,0-8,0-8s-0.1-2.8,2.4-2.7c2.4,0,2.2,2.7,2.2,2.7
	s0,6.3,0,7.9c0,0.4,0.4,0.4,0.4,0.4h5.1c0,0,0.4,0,0.4-0.4c0-1.9,0-10.5,0-10.5S173.9,49.4,169.7,49.1z"/>
<g>
	<g>
		<path class="st0" d="M213.7,2.6l0.1,0c0.4,0,0.9,0,1.3,0c0.7,0,1.2,0.1,1.5,0.3c0.4,0.3,0.6,0.7,0.6,1.2c0,0.5-0.2,0.9-0.5,1.1
			c-0.1,0.1-0.3,0.2-0.5,0.3c0.5,0.7,1.4,1.7,1.9,2.3l0,0h-1.2c-0.1-0.1-0.1-0.2-0.3-0.3c-0.3-0.4-0.4-0.5-0.7-0.9
			c-0.3-0.4-0.4-0.6-0.6-0.8l-0.1-0.1c-0.1,0-0.2,0-0.3,0c-0.1,0-0.2,0-0.4,0v2.1h-0.9V2.6z M214.6,5h0.1c0.1,0,0.2,0,0.4,0
			c0.8,0,1.2-0.3,1.2-0.8c0-0.6-0.4-0.8-1.1-0.8c-0.1,0-0.3,0-0.5,0V5z"/>
	</g>
	<path class="st0" d="M215.5,9.9c-2.5,0-4.6-2.1-4.6-4.6s2.1-4.6,4.6-4.6c2.5,0,4.6,2.1,4.6,4.6S218,9.9,215.5,9.9z M215.5,1.5
		c-2.1,0-3.8,1.7-3.8,3.8s1.7,3.8,3.8,3.8c2.1,0,3.8-1.7,3.8-3.8S217.6,1.5,215.5,1.5z"/>
</g>
</svg>
