<?xml version="1.0" encoding="utf-8"?>
<!-- Generator: Adobe Illustrator 23.0.1, SVG Export Plug-In . SVG Version: 6.00 Build 0)  -->
<svg version="1.1" id="Layer_1" xmlns="http://www.w3.org/2000/svg" xmlns:xlink="http://www.w3.org/1999/xlink" x="0px" y="0px"
	 viewBox="0 0 254.67 80.89" style="enable-background:new 0 0 254.67 80.89;" xml:space="preserve">
<style type="text/css">
	.st0{fill:#FFFFFF;}
	.st1{fill-rule:evenodd;clip-rule:evenodd;fill:#FFFFFF;}
</style>
<polygon class="st0" points="2.31,2.67 73.44,2.67 67.66,11.79 4.2,11.79 2.31,2.67 "/>
<path class="st0" d="M5.19,15.11h20.32c1.3,0,3.46,0.49,5.25,3.01c1.7,2.39,0.83,5.91,0.83,5.91l-8.66,42.93h-8.92l8.12-40.23
	c0.08-0.42,0.03-1-0.33-1.45c-0.4-0.5-0.96-0.62-1.53-0.62H7.93L5.19,15.11L5.19,15.11z"/>
<path class="st0" d="M65.59,15.14l-20.32,0c-1.3,0-3.66,0.49-6.47,3.01c-2.66,2.39-3.21,5.91-3.21,5.91l-8.66,42.93h8.92l8.12-40.23
	c0.08-0.42,0.4-1.03,0.92-1.45c0.57-0.47,1.21-0.62,1.78-0.62H59L65.59,15.14L65.59,15.14z"/>
<polygon class="st0" points="73.02,20.79 72.1,25.13 79.78,25.13 75.32,46.11 80.53,46.11 84.99,25.13 92.39,25.13 93.31,20.79 
	73.02,20.79 "/>
<polygon class="st0" points="101.15,20.79 95.94,20.79 90.56,46.11 95.77,46.11 101.15,20.79 "/>
<polygon class="st0" points="115.25,46.11 124.12,25.62 119.76,46.11 124.97,46.11 130.36,20.79 122.75,20.79 113.89,40.24 
	113.3,20.79 105.69,20.79 100.31,46.11 105.52,46.11 109.88,25.62 110.03,46.11 115.25,46.11 "/>
<polygon class="st0" points="135.07,20.79 129.69,46.11 148.62,46.11 149.54,41.77 135.82,41.77 137.21,35.24 149.33,35.24 
	150.26,30.9 138.13,30.9 139.36,25.13 152.49,25.13 153.41,20.79 135.07,20.79 "/>
<path class="st0" d="M175.01,28.5c0.39-0.83,0.54-3.2-0.42-4.9c-1.8-3.13-6.51-3.23-7.86-3.23c-6.18,0-9.74,2.99-11.01,7.02
	c-1.29,4.1,0.55,6.09,3.09,7.03c3.03,1.11,8.03,1.11,9.33,2.85c0.98,1.25,0.32,3.22-1.01,4.26c-0.79,0.62-2.54,1.14-4.28,1.18
	c-1.75,0.07-3.55-0.31-4.44-1.49c-0.68-0.9-0.66-1.94-0.52-2.6h-5.07c-0.34,2.39,0.25,4.89,2.16,6.52c1.59,1.35,4.55,1.81,5.84,1.77
	c2.82-0.04,5.85-0.38,8.3-1.77c3.6-2.05,6.23-8.05,3.96-11.11c-1.25-1.64-4.1-2.27-5.44-2.51c-0.93-0.17-5.57-0.94-6.03-1.56
	c-1.05-0.45-1.57-0.8-1.06-2.54c0.62-2.09,2.68-2.95,5.21-2.92c3.56,0.07,4.87,1.95,4.36,3.99H175.01L175.01,28.5z"/>
<path class="st0" d="M80.32,64.27l2.51-11.8h-2.27l-5.47,9.97h-0.03l-1.25-9.97h-2.28l-2.51,11.8h1.54l1.48-6.97
	c0.07-0.34,0.36-1.84,0.59-2.92h0.03l1.22,9.89h1.58l5.43-9.91h0.03c-0.23,1.1-0.59,2.6-0.66,2.94l-1.48,6.97H80.32L80.32,64.27z"/>
<polygon class="st0" points="87.09,52.47 85.5,52.47 82.99,64.27 84.58,64.27 87.09,52.47 "/>
<path class="st0" d="M98.88,56.02c0.19-1.97-0.99-3.86-4.03-3.86c-3.43,0-6.04,2.51-6.81,6.14c-0.96,4.54,1.3,6.28,3.97,6.28
	c0.89,0,4.55-0.2,6.15-4.65h-1.55c-1.12,2.74-3.02,3.24-4.06,3.24c-2.92,0-3.46-2.14-2.87-4.91c0.66-3.1,2.72-4.68,4.86-4.68
	c1.13,0,2.78,0.38,2.78,2.45H98.88L98.88,56.02z"/>
<path class="st1" d="M102.03,59.21h3.86c1.91,0,1.86,1.14,1.66,2.1c-0.09,0.44-0.42,2.23-0.35,2.96h1.96l0.06-0.27
	c-0.43-0.28-0.46-0.52-0.34-1.18l0.36-2.14c0.28-1.64-0.33-1.94-0.94-2.22c0.85-0.44,1.87-1.08,2.24-2.83
	c0.53-2.5-1.26-3.17-3.2-3.17h-5.45l-2.51,11.8h1.6L102.03,59.21L102.03,59.21z M103.17,53.84h3.98c0.79,0,2.09,0.15,1.7,1.97
	c-0.37,1.74-1.67,2.04-2.83,2.04h-3.7L103.17,53.84L103.17,53.84z"/>
<path class="st1" d="M121.52,58.37c-0.59,2.78-2.57,4.8-5.13,4.8c-2.56,0-3.68-2.02-3.09-4.8c0.59-2.78,2.56-4.8,5.13-4.8
	C121,53.58,122.11,55.6,121.52,58.37L121.52,58.37z M123.17,58.37c0.54-2.55-0.03-6.21-4.43-6.21c-4.4,0-6.53,3.66-7.07,6.21
	c-0.54,2.55,0.03,6.21,4.43,6.21C120.5,64.58,122.63,60.92,123.17,58.37L123.17,58.37z"/>
<polygon class="st0" points="132.37,54.49 132.4,54.49 133.01,64.27 134.69,64.27 140.3,52.47 138.55,52.47 134.3,62.07 
	134.27,62.07 133.66,52.47 131.92,52.47 127.24,62.07 127.21,62.07 127.04,52.47 125.32,52.47 125.88,64.27 127.56,64.27 
	132.37,54.49 "/>
<path class="st1" d="M146.32,60.84l0.44,3.44h1.74l-1.76-11.8h-1.81l-6.94,11.8h1.64l1.96-3.44H146.32L146.32,60.84z M142.39,59.42
	l2.99-5.19h0.03l0.64,5.19H142.39L142.39,59.42z"/>
<polygon class="st0" points="153.69,62.53 153.65,62.53 152.42,52.47 150.65,52.47 152.45,64.27 154.14,64.27 160.95,52.47 
	159.16,52.47 153.69,62.53 "/>
<polygon class="st0" points="169.19,62.86 162.08,62.86 162.92,58.91 169.37,58.91 169.67,57.5 163.22,57.5 163.99,53.89 
	170.98,53.89 171.29,52.47 162.69,52.47 160.18,64.27 168.89,64.27 169.19,62.86 "/>
<path class="st0" d="M185.92,55.92c0.21-1.3,0.32-3.76-3.8-3.76c-2.86,0-4.44,1.81-4.83,3.65c-0.44,2.05,1.19,2.6,1.93,2.78
	l2.3,0.56c1.84,0.46,2.33,0.85,2.07,2.09c-0.36,1.69-2.36,1.99-3.51,1.99c-1.51,0-3.12-0.62-2.67-2.76h-1.5
	c-0.24,1.1-0.25,2.09,0.56,2.99c0.42,0.48,1.14,1.13,3.32,1.13c2.02,0,4.78-0.77,5.37-3.56c0.4-1.87-0.55-2.79-2.01-3.15l-3.2-0.77
	c-0.65-0.16-1.29-0.49-1.08-1.5c0.38-1.79,2.13-2.07,3.13-2.07c1.33,0,2.72,0.58,2.41,2.4H185.92L185.92,55.92z"/>
<polygon class="st0" points="192.54,59.52 198.49,52.47 196.62,52.47 192.03,58.14 189.84,52.47 187.99,52.47 190.94,59.52 
	189.93,64.27 191.53,64.27 192.54,59.52 "/>
<path class="st0" d="M207.84,55.92c0.21-1.3,0.32-3.76-3.8-3.76c-2.86,0-4.44,1.81-4.83,3.65c-0.44,2.05,1.19,2.6,1.92,2.78
	l2.3,0.56c1.84,0.46,2.33,0.85,2.07,2.09c-0.36,1.69-2.36,1.99-3.51,1.99c-1.51,0-3.12-0.62-2.67-2.76h-1.5
	c-0.23,1.1-0.25,2.09,0.56,2.99c0.42,0.48,1.14,1.13,3.32,1.13c2.02,0,4.78-0.77,5.38-3.56c0.4-1.87-0.56-2.79-2.01-3.15l-3.2-0.77
	c-0.66-0.16-1.29-0.49-1.08-1.5c0.38-1.79,2.13-2.07,3.13-2.07c1.33,0,2.72,0.58,2.42,2.4H207.84L207.84,55.92z"/>
<polygon class="st0" points="209.61,53.89 213.6,53.89 211.39,64.27 212.98,64.27 215.19,53.89 219.18,53.89 219.48,52.47 
	209.91,52.47 209.61,53.89 "/>
<polygon class="st0" points="227.62,62.86 220.51,62.86 221.35,58.91 227.8,58.91 228.1,57.5 221.65,57.5 222.42,53.89 
	229.42,53.89 229.72,52.47 221.12,52.47 218.61,64.27 227.32,64.27 227.62,62.86 "/>
<path class="st0" d="M240.67,64.27l2.51-11.8h-2.27l-5.47,9.97h-0.03l-1.25-9.97h-2.28l-2.51,11.8h1.55l1.48-6.97
	c0.07-0.34,0.36-1.84,0.59-2.92h0.03l1.22,9.89h1.58l5.42-9.91h0.03c-0.23,1.1-0.58,2.6-0.66,2.94l-1.48,6.97H240.67L240.67,64.27z"
	/>
<path class="st0" d="M253.47,55.92c0.21-1.3,0.32-3.76-3.8-3.76c-2.86,0-4.44,1.81-4.84,3.65c-0.44,2.05,1.19,2.6,1.92,2.78
	l2.3,0.56c1.84,0.46,2.33,0.85,2.07,2.09c-0.36,1.69-2.36,1.99-3.51,1.99c-1.51,0-3.12-0.62-2.67-2.76h-1.5
	c-0.23,1.1-0.25,2.09,0.56,2.99c0.42,0.48,1.14,1.13,3.32,1.13c2.02,0,4.78-0.77,5.38-3.56c0.4-1.87-0.56-2.79-2.01-3.15l-3.2-0.77
	c-0.66-0.16-1.29-0.49-1.08-1.5c0.38-1.79,2.13-2.07,3.13-2.07c1.33,0,2.72,0.58,2.41,2.4H253.47L253.47,55.92z"/>
<g>
	<path class="st0" d="M71.17,67.38h0.88l2.08,5.74h-0.85l-0.6-1.72h-2.25l-0.62,1.72h-0.8L71.17,67.38z M72.46,70.76l-0.88-2.54
		l-0.92,2.54H72.46z"/>
	<path class="st0" d="M74.87,68.93h0.67v0.59c0.2-0.25,0.41-0.42,0.63-0.53c0.22-0.11,0.47-0.16,0.74-0.16c0.59,0,1,0.21,1.2,0.62
		c0.11,0.23,0.17,0.55,0.17,0.97v2.69h-0.72v-2.64c0-0.26-0.04-0.46-0.11-0.62c-0.13-0.26-0.35-0.39-0.68-0.39
		c-0.17,0-0.3,0.02-0.41,0.05c-0.19,0.06-0.36,0.17-0.51,0.34c-0.12,0.14-0.19,0.28-0.23,0.43c-0.03,0.15-0.05,0.36-0.05,0.63v2.19
		h-0.7V68.93z"/>
	<path class="st0" d="M83.14,67.38h0.88l2.08,5.74h-0.85l-0.6-1.72h-2.25l-0.62,1.72h-0.8L83.14,67.38z M84.43,70.76l-0.88-2.54
		l-0.92,2.54H84.43z"/>
	<path class="st0" d="M86.83,68.93h0.7v0.59c0.17-0.21,0.32-0.36,0.45-0.45c0.23-0.16,0.49-0.24,0.79-0.24
		c0.33,0,0.6,0.08,0.81,0.25c0.11,0.09,0.22,0.23,0.31,0.41c0.16-0.22,0.34-0.39,0.55-0.5c0.21-0.11,0.45-0.16,0.71-0.16
		c0.56,0,0.95,0.2,1.15,0.61c0.11,0.22,0.16,0.51,0.16,0.88v2.79h-0.73v-2.91c0-0.28-0.07-0.47-0.21-0.57
		c-0.14-0.1-0.31-0.16-0.51-0.16c-0.28,0-0.51,0.09-0.71,0.28c-0.2,0.19-0.3,0.49-0.3,0.93v2.43h-0.72v-2.73
		c0-0.28-0.03-0.49-0.1-0.62c-0.11-0.19-0.31-0.29-0.6-0.29c-0.27,0-0.51,0.1-0.73,0.31c-0.22,0.21-0.33,0.58-0.33,1.12v2.22h-0.7
		V68.93z"/>
	<path class="st0" d="M93.57,68.95h0.69v0.56c0.14-0.19,0.3-0.34,0.46-0.44c0.24-0.16,0.52-0.23,0.84-0.23
		c0.48,0,0.88,0.18,1.21,0.55c0.33,0.36,0.5,0.88,0.5,1.56c0,0.91-0.24,1.56-0.72,1.95c-0.3,0.25-0.66,0.37-1.06,0.37
		c-0.32,0-0.58-0.07-0.8-0.21c-0.13-0.08-0.27-0.21-0.42-0.4v2.14h-0.7V68.95z M96.22,72.23c0.22-0.27,0.33-0.69,0.33-1.23
		c0-0.33-0.05-0.62-0.15-0.86c-0.18-0.46-0.52-0.69-1-0.69c-0.49,0-0.82,0.24-1,0.73c-0.1,0.26-0.15,0.59-0.15,0.99
		c0,0.32,0.05,0.6,0.15,0.83c0.18,0.43,0.52,0.65,1,0.65C95.73,72.65,96,72.51,96.22,72.23z"/>
	<path class="st0" d="M98.21,67.36h0.7v2.14c0.17-0.21,0.32-0.36,0.45-0.45c0.23-0.15,0.51-0.22,0.85-0.22
		c0.61,0,1.02,0.21,1.24,0.64c0.12,0.23,0.18,0.55,0.18,0.97v2.69h-0.72v-2.64c0-0.31-0.04-0.53-0.12-0.68
		c-0.13-0.23-0.37-0.34-0.72-0.34c-0.29,0-0.56,0.1-0.79,0.3c-0.24,0.2-0.36,0.58-0.36,1.14v2.22h-0.7V67.36z"/>
	<path class="st0" d="M105.38,69.05c0.28,0.14,0.49,0.32,0.63,0.54c0.14,0.21,0.23,0.46,0.28,0.74c0.04,0.19,0.06,0.5,0.06,0.92
		h-3.04c0.01,0.43,0.11,0.77,0.3,1.02c0.19,0.26,0.47,0.39,0.86,0.39c0.36,0,0.66-0.12,0.87-0.37c0.12-0.14,0.21-0.3,0.26-0.49h0.69
		c-0.02,0.15-0.08,0.33-0.18,0.51c-0.1,0.19-0.22,0.34-0.34,0.46c-0.21,0.21-0.47,0.35-0.79,0.42c-0.17,0.04-0.36,0.06-0.57,0.06
		c-0.52,0-0.96-0.19-1.32-0.57c-0.36-0.38-0.54-0.91-0.54-1.59c0-0.67,0.18-1.22,0.54-1.64c0.36-0.42,0.84-0.63,1.42-0.63
		C104.81,68.84,105.1,68.91,105.38,69.05z M105.63,70.69c-0.03-0.3-0.09-0.55-0.2-0.73c-0.19-0.34-0.51-0.51-0.96-0.51
		c-0.32,0-0.59,0.12-0.81,0.35c-0.22,0.23-0.33,0.53-0.34,0.89H105.63z"/>
	<path class="st0" d="M107.37,68.93h0.67v0.59c0.2-0.25,0.41-0.42,0.63-0.53c0.22-0.11,0.47-0.16,0.74-0.16c0.59,0,1,0.21,1.2,0.62
		c0.11,0.23,0.17,0.55,0.17,0.97v2.69h-0.72v-2.64c0-0.26-0.04-0.46-0.11-0.62c-0.13-0.26-0.35-0.39-0.68-0.39
		c-0.17,0-0.3,0.02-0.41,0.05c-0.19,0.06-0.36,0.17-0.51,0.34c-0.12,0.14-0.19,0.28-0.23,0.43c-0.03,0.15-0.05,0.36-0.05,0.63v2.19
		h-0.7V68.93z"/>
	<path class="st0" d="M114.98,69.35c0.37,0.36,0.56,0.89,0.56,1.59c0,0.67-0.16,1.23-0.49,1.67c-0.33,0.44-0.83,0.66-1.52,0.66
		c-0.57,0-1.03-0.19-1.36-0.58c-0.34-0.39-0.5-0.91-0.5-1.57c0-0.7,0.18-1.26,0.53-1.68c0.35-0.42,0.83-0.62,1.43-0.62
		C114.16,68.81,114.61,68.99,114.98,69.35z M114.55,72.13c0.17-0.35,0.26-0.74,0.26-1.18c0-0.39-0.06-0.71-0.19-0.95
		c-0.2-0.39-0.53-0.58-1.01-0.58c-0.43,0-0.73,0.16-0.93,0.49c-0.19,0.33-0.29,0.72-0.29,1.19c0,0.45,0.1,0.82,0.29,1.11
		c0.19,0.3,0.5,0.45,0.92,0.45C114.06,72.66,114.38,72.48,114.55,72.13z"/>
	<path class="st0" d="M116.55,67.38h0.7v5.74h-0.7V67.38z"/>
	<path class="st0" d="M124.94,67.79c0.4,0.38,0.62,0.82,0.66,1.31h-0.76c-0.08-0.37-0.25-0.66-0.5-0.88
		c-0.25-0.22-0.61-0.32-1.06-0.32c-0.56,0-1,0.2-1.35,0.6c-0.34,0.4-0.51,1.01-0.51,1.83c0,0.67,0.15,1.22,0.46,1.64
		c0.31,0.42,0.77,0.63,1.38,0.63c0.56,0,0.99-0.22,1.29-0.66c0.16-0.23,0.27-0.54,0.35-0.91h0.76c-0.07,0.6-0.29,1.11-0.66,1.52
		c-0.45,0.49-1.06,0.74-1.82,0.74c-0.66,0-1.21-0.2-1.66-0.61c-0.59-0.53-0.88-1.36-0.88-2.48c0-0.85,0.22-1.54,0.66-2.09
		c0.48-0.59,1.14-0.88,1.98-0.88C123.99,67.22,124.55,67.41,124.94,67.79z"/>
	<path class="st0" d="M129.73,69.35c0.37,0.36,0.56,0.89,0.56,1.59c0,0.67-0.16,1.23-0.49,1.67c-0.33,0.44-0.83,0.66-1.52,0.66
		c-0.57,0-1.03-0.19-1.36-0.58c-0.34-0.39-0.5-0.91-0.5-1.57c0-0.7,0.18-1.26,0.53-1.68c0.35-0.42,0.83-0.62,1.43-0.62
		C128.91,68.81,129.36,68.99,129.73,69.35z M129.29,72.13c0.17-0.35,0.26-0.74,0.26-1.18c0-0.39-0.06-0.71-0.19-0.95
		c-0.2-0.39-0.53-0.58-1.01-0.58c-0.43,0-0.73,0.16-0.93,0.49c-0.19,0.33-0.29,0.72-0.29,1.19c0,0.45,0.1,0.82,0.29,1.11
		c0.19,0.3,0.5,0.45,0.92,0.45C128.81,72.66,129.12,72.48,129.29,72.13z"/>
	<path class="st0" d="M131.28,68.93h0.7v0.59c0.17-0.21,0.32-0.36,0.45-0.45c0.23-0.16,0.49-0.24,0.79-0.24
		c0.33,0,0.6,0.08,0.81,0.25c0.11,0.09,0.22,0.23,0.31,0.41c0.16-0.22,0.34-0.39,0.55-0.5c0.21-0.11,0.45-0.16,0.71-0.16
		c0.56,0,0.95,0.2,1.15,0.61c0.11,0.22,0.16,0.51,0.16,0.88v2.79h-0.73v-2.91c0-0.28-0.07-0.47-0.21-0.57
		c-0.14-0.1-0.31-0.16-0.51-0.16c-0.28,0-0.51,0.09-0.71,0.28c-0.2,0.19-0.3,0.49-0.3,0.93v2.43h-0.72v-2.73
		c0-0.28-0.03-0.49-0.1-0.62c-0.11-0.19-0.31-0.29-0.6-0.29c-0.27,0-0.51,0.1-0.73,0.31c-0.22,0.21-0.33,0.58-0.33,1.12v2.22h-0.7
		V68.93z"/>
	<path class="st0" d="M138.02,68.95h0.69v0.56c0.14-0.19,0.3-0.34,0.46-0.44c0.24-0.16,0.52-0.23,0.84-0.23
		c0.48,0,0.88,0.18,1.21,0.55c0.33,0.36,0.5,0.88,0.5,1.56c0,0.91-0.24,1.56-0.72,1.95c-0.3,0.25-0.66,0.37-1.06,0.37
		c-0.32,0-0.58-0.07-0.8-0.21c-0.13-0.08-0.27-0.21-0.42-0.4v2.14h-0.7V68.95z M140.66,72.23c0.22-0.27,0.33-0.69,0.33-1.23
		c0-0.33-0.05-0.62-0.15-0.86c-0.18-0.46-0.52-0.69-1-0.69c-0.49,0-0.82,0.24-1,0.73c-0.1,0.26-0.15,0.59-0.15,0.99
		c0,0.32,0.05,0.6,0.15,0.83c0.18,0.43,0.52,0.65,1,0.65C140.17,72.65,140.44,72.51,140.66,72.23z"/>
	<path class="st0" d="M144.9,70.58c0.16-0.02,0.27-0.09,0.32-0.2c0.03-0.06,0.05-0.15,0.05-0.27c0-0.24-0.09-0.42-0.26-0.52
		c-0.17-0.11-0.41-0.16-0.73-0.16c-0.37,0-0.63,0.1-0.78,0.3c-0.09,0.11-0.14,0.27-0.17,0.49h-0.66c0.01-0.52,0.18-0.88,0.5-1.08
		c0.32-0.2,0.69-0.3,1.12-0.3c0.49,0,0.89,0.09,1.2,0.28c0.3,0.19,0.46,0.48,0.46,0.88v2.41c0,0.07,0.01,0.13,0.04,0.18
		c0.03,0.04,0.09,0.07,0.19,0.07c0.03,0,0.07,0,0.11-0.01c0.04,0,0.08-0.01,0.13-0.02v0.52c-0.11,0.03-0.19,0.05-0.25,0.06
		c-0.06,0.01-0.14,0.01-0.23,0.01c-0.24,0-0.42-0.09-0.53-0.26c-0.06-0.09-0.1-0.22-0.12-0.39c-0.14,0.19-0.35,0.35-0.62,0.49
		c-0.27,0.14-0.56,0.21-0.89,0.21c-0.39,0-0.71-0.12-0.95-0.35c-0.25-0.24-0.37-0.53-0.37-0.88c0-0.39,0.12-0.69,0.36-0.9
		c0.24-0.21,0.56-0.34,0.95-0.39L144.9,70.58z M143.42,72.49c0.15,0.12,0.32,0.18,0.53,0.18c0.25,0,0.49-0.06,0.72-0.17
		c0.39-0.19,0.59-0.5,0.59-0.93v-0.57c-0.09,0.05-0.2,0.1-0.33,0.14c-0.14,0.04-0.27,0.06-0.4,0.08l-0.43,0.06
		c-0.26,0.03-0.45,0.09-0.58,0.16c-0.22,0.12-0.33,0.32-0.33,0.59C143.19,72.21,143.27,72.37,143.42,72.49z"/>
	<path class="st0" d="M147.23,68.93h0.67v0.59c0.2-0.25,0.41-0.42,0.63-0.53c0.22-0.11,0.47-0.16,0.74-0.16c0.59,0,1,0.21,1.2,0.62
		c0.11,0.23,0.17,0.55,0.17,0.97v2.69h-0.72v-2.64c0-0.26-0.04-0.46-0.11-0.62c-0.13-0.26-0.35-0.39-0.68-0.39
		c-0.17,0-0.3,0.02-0.41,0.05c-0.19,0.06-0.36,0.17-0.51,0.34c-0.12,0.14-0.19,0.28-0.23,0.43c-0.03,0.15-0.05,0.36-0.05,0.63v2.19
		h-0.7V68.93z"/>
	<path class="st0" d="M154.43,68.93h0.78c-0.1,0.27-0.32,0.88-0.66,1.84c-0.26,0.72-0.47,1.31-0.64,1.76
		c-0.41,1.07-0.69,1.72-0.86,1.95c-0.17,0.23-0.45,0.35-0.86,0.35c-0.1,0-0.17,0-0.23-0.01c-0.05-0.01-0.12-0.02-0.2-0.04v-0.64
		c0.12,0.03,0.21,0.05,0.27,0.06c0.05,0.01,0.1,0.01,0.14,0.01c0.13,0,0.23-0.02,0.29-0.06c0.06-0.04,0.11-0.1,0.15-0.16
		c0.01-0.02,0.06-0.13,0.14-0.32c0.08-0.19,0.14-0.34,0.18-0.43l-1.55-4.31h0.8l1.12,3.41L154.43,68.93z"/>
</g>
</svg>
